{
  "accessors": [
    {
      "bufferView": 2,
      "componentType": 5126,
      "count": 361,
      "max": [
        0.9888672828674316,
        1.02264404296875,
        0.6207032203674316
      ],
      "min": [
        -0.2751651406288147,
        -1.02264404296875,
        -0.07425351440906525
      ],
      "type": "VEC3"
    },
    {
      "bufferView": 2,
      "byteOffset": 4332,
      "componentType": 5126,
      "count": 361,
      "max": [
        1.0,
        0.9985581040382385,
        0.9987442493438721
      ],
      "min": [
        -0.7943134903907776,
        -0.9989840984344482,
        -0.9908621311187744
      ],
      "type": "VEC3"
    },
    {
      "bufferView": 1,
      "componentType": 5126,
      "count": 361,
      "max": [
        1.0,
        1.0
      ],
      "min": [
        0.0,
        -0.05056843161582947
      ],
      "type": "VEC2"
    },
    {
      "bufferView": 0,
      "componentType": 5125,
      "count": 573,
      "type": "SCALAR"
    },
    {
      "bufferView": 2,
      "byteOffset": 8664,
      "componentType": 5126,
      "count": 2731,
      "max": [
        0.9652528762817383,
        0.9502105712890625,
        0.6207032203674316
      ],
      "min": [
        -1.0000056028366089,
        -0.9502105712890625,
        -0.07512775808572769
      ],
      "type": "VEC3"
    },
    {
      "bufferView": 2,
      "byteOffset": 41436,
      "componentType": 5126,
      "count": 2731,
      "max": [
        0.9908627867698669,
        1.0,
        1.0
      ],
      "min": [
        -1.0,
        -1.0,
        -0.9999993443489075
      ],
      "type": "VEC3"
    },
    {
      "bufferView": 1,
      "byteOffset": 2888,
      "componentType": 5126,
      "count": 2731,
      "max": [
        1.0,
        1.0
      ],
      "min": [
        0.0,
        -0.035759396851062775
      ],
      "type": "VEC2"
    },
    {
      "bufferView": 0,
      "byteOffset": 2292,
      "componentType": 5125,
      "count": 4179,
      "type": "SCALAR"
    },
    {
      "bufferView": 2,
      "byteOffset": 74208,
      "componentType": 5126,
      "count": 1870,
      "max": [
        0.5191554427146912,
        0.3134022057056427,
        0.17852425575256348
      ],
      "min": [
        -1.0161885023117065,
        -0.3134022057056427,
        -0.03540147840976715
      ],
      "type": "VEC3"
    },
    {
      "bufferView": 2,
      "byteOffset": 96648,
      "componentType": 5126,
      "count": 1870,
      "max": [
        1.0,
        0.9990094900131226,
        0.8286242485046387
      ],
      "min": [
        -0.9999997019767761,
        -0.999009370803833,
        -0.6202287077903748
      ],
      "type": "VEC3"
    },
    {
      "bufferView": 1,
      "byteOffset": 24736,
      "componentType": 5126,
      "count": 1870,
      "max": [
        0.8384196162223816,
        0.6250079870223999
      ],
      "min": [
        0.07345868647098541,
        0.07478684186935425
      ],
      "type": "VEC2"
    },
    {
      "bufferView": 0,
      "byteOffset": 19008,
      "componentType": 5125,
      "count": 2808,
      "type": "SCALAR"
    },
    {
      "bufferView": 2,
      "byteOffset": 119088,
      "componentType": 5126,
      "count": 488,
      "max": [
        0.09351634979248047,
        0.3563704490661621,
        0.1023508682847023
      ],
      "min": [
        -1.0080969333648682,
        -0.3563704490661621,
        -0.06858774274587631
      ],
      "type": "VEC3"
    },
    {
      "bufferView": 2,
      "byteOffset": 124944,
      "componentType": 5126,
      "count": 488,
      "max": [
        1.0,
        1.0,
        0.9755427837371826
      ],
      "min": [
        -1.0,
        -1.0,
        -0.9691895246505737
      ],
      "type": "VEC3"
    },
    {
      "bufferView": 1,
      "byteOffset": 39696,
      "componentType": 5126,
      "count": 488,
      "max": [
        1.0,
        1.0
      ],
      "min": [
        0.0,
        0.01000000536441803
      ],
      "type": "VEC2"
    },
    {
      "bufferView": 0,
      "byteOffset": 30240,
      "componentType": 5125,
      "count": 768,
      "type": "SCALAR"
    },
    {
      "bufferView": 2,
      "byteOffset": 130800,
      "componentType": 5126,
      "count": 384,
      "max": [
        0.41005003452301025,
        0.09606637805700302,
        0.165143683552742
      ],
      "min": [
        -0.5895447134971619,
        -0.09606637805700302,
        0.12700121104717255
      ],
      "type": "VEC3"
    },
    {
      "bufferView": 2,
      "byteOffset": 135408,
      "componentType": 5126,
      "count": 384,
      "max": [
        0.0058925459161400795,
        0.955162763595581,
        0.2960236370563507
      ],
      "min": [
        0.005891892127692699,
        -0.955162763595581,
        0.29602280259132385
      ],
      "type": "VEC3"
    },
    {
      "bufferView": 1,
      "byteOffset": 43600,
      "componentType": 5126,
      "count": 384,
      "max": [
        0.5213717818260193,
        0.42310699820518494
      ],
      "min": [
        0.5027338266372681,
        0.2975315749645233
      ],
      "type": "VEC2"
    },
    {
      "bufferView": 0,
      "byteOffset": 33312,
      "componentType": 5125,
      "count": 864,
      "type": "SCALAR"
    },
    {
      "bufferView": 2,
      "byteOffset": 140016,
      "componentType": 5126,
      "count": 154,
      "max": [
        0.015686072409152985,
        0.012753074057400227,
        0.0036285684909671545
      ],
      "min": [
        -0.028612688183784485,
        -0.012844360433518887,
        -0.07704007625579834
      ],
      "type": "VEC3"
    },
    {
      "bufferView": 2,
      "byteOffset": 141864,
      "componentType": 5126,
      "count": 154,
      "max": [
        1.0,
        1.0,
        1.0
      ],
      "min": [
        -1.0,
        -1.0,
        -1.0
      ],
      "type": "VEC3"
    },
    {
      "bufferView": 1,
      "byteOffset": 46672,
      "componentType": 5126,
      "count": 154,
      "max": [
        1.0,
        1.0
      ],
      "min": [
        -1.1102230246251565e-16,
        0.0
      ],
      "type": "VEC2"
    },
    {
      "bufferView": 0,
      "byteOffset": 36768,
      "componentType": 5125,
      "count": 240,
      "type": "SCALAR"
    },
    {
      "bufferView": 2,
      "byteOffset": 143712,
      "componentType": 5126,
      "count": 192,
      "max": [
        0.024225393310189247,
        0.012753074057400227,
        -0.046281926333904266
      ],
      "min": [
        -0.01983034238219261,
        -0.012844360433518887,
        -0.08443532884120941
      ],
      "type": "VEC3"
    },
    {
      "bufferView": 2,
      "byteOffset": 146016,
      "componentType": 5126,
      "count": 192,
      "max": [
        0.7575774192810059,
        0.9801942706108093,
        0.9328817129135132
      ],
      "min": [
        -0.757579505443573,
        -0.9833452105522156,
        -0.8779083490371704
      ],
      "type": "VEC3"
    },
    {
      "bufferView": 1,
      "byteOffset": 47904,
      "componentType": 5126,
      "count": 192,
      "max": [
        1.0,
        0.75
      ],
      "min": [
        -1.1102230246251565e-16,
        0.25
      ],
      "type": "VEC2"
    },
    {
      "bufferView": 0,
      "byteOffset": 37728,
      "componentType": 5125,
      "count": 288,
      "type": "SCALAR"
    },
    {
      "bufferView": 2,
      "byteOffset": 148320,
      "componentType": 5126,
      "count": 152,
      "max": [
        0.018988117575645447,
        0.01543767936527729,
        0.005080690141767263
      ],
      "min": [
        -0.034635864198207855,
        -0.01554820779711008,
        -0.09256932139396667
      ],
      "type": "VEC3"
    },
    {
      "bufferView": 2,
      "byteOffset": 150144,
      "componentType": 5126,
      "count": 152,
      "max": [
        1.0,
        1.0,
        1.0
      ],
      "min": [
        -1.0,
        -1.0,
        -1.0
      ],
      "type": "VEC3"
    },
    {
      "bufferView": 1,
      "byteOffset": 49440,
      "componentType": 5126,
      "count": 152,
      "max": [
        1.0,
        1.0
      ],
      "min": [
        -1.1102230246251565e-16,
        0.0
      ],
      "type": "VEC2"
    },
    {
      "bufferView": 0,
      "byteOffset": 38880,
      "componentType": 5125,
      "count": 240,
      "type": "SCALAR"
    },
    {
      "bufferView": 2,
      "byteOffset": 151968,
      "componentType": 5126,
      "count": 192,
      "max": [
        0.029325000941753387,
        0.01543767936527729,
        -0.05533634498715401
      ],
      "min": [
        -0.024004807695746422,
        -0.01554820779711008,
        -0.1015213280916214
      ],
      "type": "VEC3"
    },
    {
      "bufferView": 2,
      "byteOffset": 154272,
      "componentType": 5126,
      "count": 192,
      "max": [
        0.7575778365135193,
        0.9801943302154541,
        0.9328818917274475
      ],
      "min": [
        -0.7575777173042297,
        -0.9833453297615051,
        -0.8779082298278809
      ],
      "type": "VEC3"
    },
    {
      "bufferView": 1,
      "byteOffset": 50656,
      "componentType": 5126,
      "count": 192,
      "max": [
        1.0,
        0.75
      ],
      "min": [
        -1.1102230246251565e-16,
        0.25
      ],
      "type": "VEC2"
    },
    {
      "bufferView": 0,
      "byteOffset": 39840,
      "componentType": 5125,
      "count": 288,
      "type": "SCALAR"
    },
    {
      "bufferView": 2,
      "byteOffset": 156576,
      "componentType": 5126,
      "count": 154,
      "max": [
        0.018988117575645447,
        0.015437658876180649,
        0.005080690141767263
      ],
      "min": [
        -0.034635864198207855,
        -0.015548228286206722,
        -0.09256932139396667
      ],
      "type": "VEC3"
    },
    {
      "bufferView": 2,
      "byteOffset": 158424,
      "componentType": 5126,
      "count": 154,
      "max": [
        1.0,
        1.0,
        1.0
      ],
      "min": [
        -1.0,
        -1.0,
        -1.0
      ],
      "type": "VEC3"
    },
    {
      "bufferView": 1,
      "byteOffset": 52192,
      "componentType": 5126,
      "count": 154,
      "max": [
        1.0,
        1.0
      ],
      "min": [
        -1.1102230246251565e-16,
        0.0
      ],
      "type": "VEC2"
    },
    {
      "bufferView": 0,
      "byteOffset": 40992,
      "componentType": 5125,
      "count": 240,
      "type": "SCALAR"
    },
    {
      "bufferView": 2,
      "byteOffset": 160272,
      "componentType": 5126,
      "count": 192,
      "max": [
        0.029325000941753387,
        0.015437658876180649,
        -0.05533634498715401
      ],
      "min": [
        -0.024004807695746422,
        -0.015548228286206722,
        -0.1015213280916214
      ],
      "type": "VEC3"
    },
    {
      "bufferView": 2,
      "byteOffset": 162576,
      "componentType": 5126,
      "count": 192,
      "max": [
        0.7575778365135193,
        0.9801942110061646,
        0.9328818917274475
      ],
      "min": [
        -0.7575777769088745,
        -0.9833453297615051,
        -0.8779082894325256
      ],
      "type": "VEC3"
    },
    {
      "bufferView": 1,
      "byteOffset": 53424,
      "componentType": 5126,
      "count": 192,
      "max": [
        1.0,
        0.75
      ],
      "min": [
        -1.1102230246251565e-16,
        0.25
      ],
      "type": "VEC2"
    },
    {
      "bufferView": 0,
      "byteOffset": 41952,
      "componentType": 5125,
      "count": 288,
      "type": "SCALAR"
    }
  ],
  "asset": {
    "extras": {
      "author": "Kerem Biçer (https://sketchfab.com/mr.harvester81)",
      "license": "SKETCHFAB Standard (https://sketchfab.com/licenses)",
      "source": "https://sketchfab.com/3d-models/low-poly-airplane-08d851cb976742d8bc5eb9424b9cd2fb",
      "title": "Low Poly Airplane"
    },
    "generator": "Sketchfab-15.49.0",
    "version": "2.0"
  },
  "bufferViews": [
    {
      "buffer": 0,
      "byteLength": 43104,
      "name": "floatBufferViews",
      "target": 34963
    },
    {
      "buffer": 0,
      "byteLength": 54960,
      "byteOffset": 43104,
      "byteStride": 8,
      "name": "floatBufferViews",
      "target": 34962
    },
    {
      "buffer": 0,
      "byteLength": 164880,
      "byteOffset": 98064,
      "byteStride": 12,
      "name": "floatBufferViews",
      "target": 34962
    }
  ],
  "buffers": [
    {
      "byteLength": 262944,
      "uri": "scene.bin"
    }
  ],
  "materials": [
    {
      "doubleSided": true,
      "name": "blue",
      "pbrMetallicRoughness": {
        "baseColorFactor": [
          0.0,
          0.327629,
          0.476988,
          1.0
        ],
        "metallicFactor": 0.0,
        "roughnessFactor": 0.939903706617071
      }
    },
    {
      "doubleSided": true,
      "name": "white",
      "pbrMetallicRoughness": {
        "baseColorFactor": [
          0.8,
          0.8,
          0.8,
          1.0
        ],
        "metallicFactor": 0.0,
        "roughnessFactor": 0.8211145618000169
      }
    },
    {
      "doubleSided": true,
      "name": "dark",
      "pbrMetallicRoughness": {
        "baseColorFactor": [
          0.00128793,
          0.00748831,
          0.0214669,
          1.0
        ],
        "metallicFactor": 0.0,
        "roughnessFactor": 0.9983946455380065
      }
    },
    {
      "doubleSided": true,
      "name": "metal",
      "pbrMetallicRoughness": {
        "baseColorFactor": [
          0.29452,
          0.29452,
          0.29452,
          1.0
        ],
        "metallicFactor": 0.0,
        "roughnessFactor": 0.9341433259266761
      }
    },
    {
      "doubleSided": true,
      "name": "window",
      "pbrMetallicRoughness": {
        "baseColorFactor": [
          0.634588,
          0.8,
          0.742167,
          1.0
        ],
        "metallicFactor": 0.0,
        "roughnessFactor": 0.829911730355686
      }
    }
  ],
  "meshes": [
    {
      "name": "Cube_blue_0",
      "primitives": [
        {
          "attributes": {
            "NORMAL": 1,
            "POSITION": 0,
            "TEXCOORD_0": 2
          },
          "indices": 3,
          "material": 0,
          "mode": 4
        }
      ]
    },
    {
      "name": "Cube_white_0",
      "primitives": [
        {
          "attributes": {
            "NORMAL": 5,
            "POSITION": 4,
            "TEXCOORD_0": 6
          },
          "indices": 7,
          "material": 1,
          "mode": 4
        }
      ]
    },
    {
      "name": "Cube_dark_0",
      "primitives": [
        {
          "attributes": {
            "NORMAL": 9,
            "POSITION": 8,
            "TEXCOORD_0": 10
          },
          "indices": 11,
          "material": 2,
          "mode": 4
        }
      ]
    },
    {
      "name": "Cube_metal_0",
      "primitives": [
        {
          "attributes": {
            "NORMAL": 13,
            "POSITION": 12,
            "TEXCOORD_0": 14
          },
          "indices": 15,
          "material": 3,
          "mode": 4
        }
      ]
    },
    {
      "name": "Cube_window_0",
      "primitives": [
        {
          "attributes": {
            "NORMAL": 17,
            "POSITION": 16,
            "TEXCOORD_0": 18
          },
          "indices": 19,
          "material": 4,
          "mode": 4
        }
      ]
    },
    {
      "name": "Cube.001_metal_0",
      "primitives": [
        {
          "attributes": {
            "NORMAL": 21,
            "POSITION": 20,
            "TEXCOORD_0": 22
          },
          "indices": 23,
          "material": 3,
          "mode": 4
        }
      ]
    },
    {
      "name": "Cube.001_dark_0",
      "primitives": [
        {
          "attributes": {
            "NORMAL": 25,
            "POSITION": 24,
            "TEXCOORD_0": 26
          },
          "indices": 27,
          "material": 2,
          "mode": 4
        }
      ]
    },
    {
      "name": "Cube.002_metal_0",
      "primitives": [
        {
          "attributes": {
            "NORMAL": 29,
            "POSITION": 28,
            "TEXCOORD_0": 30
          },
          "indices": 31,
          "material": 3,
          "mode": 4
        }
      ]
    },
    {
      "name": "Cube.002_dark_0",
      "primitives": [
        {
          "attributes": {
            "NORMAL": 33,
            "POSITION": 32,
            "TEXCOORD_0": 34
          },
          "indices": 35,
          "material": 2,
          "mode": 4
        }
      ]
    },
    {
      "name": "Cube.003_metal_0",
      "primitives": [
        {
          "attributes": {
            "NORMAL": 37,
            "POSITION": 36,
            "TEXCOORD_0": 38
          },
          "indices": 39,
          "material": 3,
          "mode": 4
        }
      ]
    },
    {
      "name": "Cube.003_dark_0",
      "primitives": [
        {
          "attributes": {
            "NORMAL": 41,
            "POSITION": 40,
            "TEXCOORD_0": 42
          },
          "indices": 43,
          "material": 2,
          "mode": 4
        }
      ]
    }
  ],
  "nodes": [
    {
      "children": [
        1
      ],
      "matrix": [
        1.0,
        0.0,
        0.0,
        0.0,
        0.0,
        2.220446049250313e-16,
        -1.0,
        0.0,
        0.0,
        1.0,
        2.220446049250313e-16,
        0.0,
        0.0,
        0.0,
        0.0,
        1.0
      ],
      "name": "Sketchfab_model"
    },
    {
      "children": [
        2
      ],
      "matrix": [
        0.009999999776482582,
        0.0,
        0.0,
        0.0,
        0.0,
        0.0,
        0.009999999776482582,
        0.0,
        0.0,
        -0.009999999776482582,
        0.0,
        0.0,
        0.0,
        0.0,
        0.0,
        1.0
      ],
      "name": "Airplane.fbx"
    },
    {
      "children": [
        3
      ],
      "name": "RootNode"
    },
    {
      "children": [
        4,
        5,
        6,
        7,
        8,
        9,
        12,
        15
      ],
      "matrix": [
        100.0,
        0.0,
        0.0,
        0.0,
        0.0,
        -1.629206793918314e-05,
        -99.99999999999868,
        0.0,
        0.0,
        99.99999999999868,
        -1.629206793918314e-05,
        0.0,
        0.0,
        0.0,
        0.0,
        1.0
      ],
      "name": "Cube"
    },
    {
      "mesh": 0,
      "name": "Cube_blue_0"
    },
    {
      "mesh": 1,
      "name": "Cube_white_0"
    },
    {
      "mesh": 2,
      "name": "Cube_dark_0"
    },
    {
      "mesh": 3,
      "name": "Cube_metal_0"
    },
    {
      "mesh": 4,
      "name": "Cube_window_0"
    },
    {
      "children": [
        10,
        11
      ],
      "matrix": [
        1.0,
        0.0,
        0.0,
        0.0,
        0.0,
        1.0,
        -2.646977960169688e-23,
        0.0,
        0.0,
        2.646977960169688e-23,
        1.0,
        0.0,
        -0.7876152992248535,
        -0.003810600843280554,
        -0.0023219361901283264,
        1.0
      ],
      "name": "Cube.001"
    },
    {
      "mesh": 5,
      "name": "Cube.001_metal_0"
    },
    {
      "mesh": 6,
      "name": "Cube.001_dark_0"
    },
    {
      "children": [
        13,
        14
      ],
      "matrix": [
        1.0,
        0.0,
        0.0,
        0.0,
        0.0,
        1.0,
        -2.646977960169688e-23,
        0.0,
        0.0,
        2.646977960169688e-23,
        1.0,
        0.0,
        -0.046376366168260574,
        -0.052071988582611084,
        0.0008679223246872425,
        1.0
      ],
      "name": "Cube.002"
    },
    {
      "mesh": 7,
      "name": "Cube.002_metal_0"
    },
    {
      "mesh": 8,
      "name": "Cube.002_dark_0"
    },
    {
      "children": [
        16,
        17
      ],
      "matrix": [
        1.0,
        0.0,
        0.0,
        0.0,
        0.0,
        1.0,
        -2.646977960169688e-23,
        0.0,
        0.0,
        2.646977960169688e-23,
        1.0,
        0.0,
        -0.046376366168260574,
        0.0517023429274559,
        0.0008679223246872425,
        1.0
      ],
      "name": "Cube.003"
    },
    {
      "mesh": 9,
      "name": "Cube.003_metal_0"
    },
    {
      "mesh": 10,
      "name": "Cube.003_dark_0"
    }
  ],
  "scene": 0,
  "scenes": [
    {
      "name": "Sketchfab_Scene",
      "nodes": [
        0
      ]
    }
  ]
}
